<svg width="225" height="245" viewBox="0 0 225 245" fill="none" xmlns="http://www.w3.org/2000/svg">
<mask id="mask0_74_296" style="mask-type:alpha" maskUnits="userSpaceOnUse" x="0" y="0" width="225" height="245">
<path d="M225 110.25C225 204.75 112.5 244.875 112.5 244.875C112.5 244.875 0 202.5 0 112.5C0 50.368 50.368 0 112.5 0C174.632 0 225 48.118 225 110.25Z" fill="#D9D9D9"/>
</mask>
<g mask="url(#mask0_74_296)">
<path d="M225 110.25C225 204.75 112.5 244.875 112.5 244.875C112.5 244.875 0 202.5 0 112.5C0 50.368 50.368 0 112.5 0C174.632 0 225 48.118 225 110.25Z" fill="#74D4FF"/>
<circle cx="112.5" cy="110.574" r="37" fill="#FFB86A"/>
<path d="M189.055 194.743C156.136 229.312 112.5 244.875 112.5 244.875C112.5 244.875 69.2429 228.581 36.375 194.743L112.5 120.562L189.055 194.743Z" fill="#CAD5E2"/>
<path d="M118.729 0.0836691C118.729 0.128184 118.764 0.164923 118.808 0.167272C178.006 3.29621 225 50.2349 225 110.25C225 142.687 211.745 168.717 194.335 188.917C194.284 188.977 194.287 189.066 194.343 189.121C194.402 189.18 194.402 189.275 194.343 189.334L190.823 192.853C161.508 224.639 122.686 240.926 114.189 244.236C113.086 244.666 111.919 244.656 110.823 244.209C102.305 240.735 63.082 223.619 33.6982 191.918L31.0765 189.296C31.0385 189.258 31.0384 189.197 31.0763 189.159C31.1125 189.122 31.1142 189.064 31.0802 189.025C13.4668 169.072 0 143.637 0 112.5C0 52.3276 47.2408 3.18897 106.657 0.149127C106.697 0.147097 106.729 0.114323 106.729 0.074591C106.729 0.0333955 106.762 0 106.803 0H118.645C118.691 0 118.729 0.0374599 118.729 0.0836691ZM51.4713 185.734C49.503 187.702 49.5167 190.904 51.5643 192.79C55.4756 196.391 59.5171 199.781 63.6104 202.96C76.9181 213.296 90.2948 221.017 100.374 226.157C105.399 228.72 109.564 230.622 112.441 231.87C112.455 231.876 112.469 231.882 112.483 231.888C112.558 231.92 112.644 231.921 112.719 231.89C115.582 230.697 119.732 228.869 124.74 226.382C134.786 221.392 148.122 213.827 161.39 203.522C165.664 200.203 169.889 196.632 173.975 192.805C175.992 190.915 175.99 187.739 174.035 185.784L116.263 128.012C114.31 126.059 111.145 126.06 109.192 128.012L51.4713 185.734ZM106.729 17.4561C106.729 14.5836 104.31 12.29 101.454 12.6022C51.1466 18.1019 12 60.7284 12 112.5C12 137.665 21.9938 158.961 36.1956 176.508C38.0154 178.756 41.372 178.862 43.4175 176.817L105.264 114.971C106.202 114.034 106.729 112.762 106.729 111.436V17.4561ZM118.729 111.436C118.729 112.762 119.255 114.034 120.193 114.971L181.909 176.687C183.972 178.751 187.364 178.622 189.167 176.328C203.139 158.554 213 136.664 213 110.25C213 58.9107 174.34 18.0683 124.01 12.6191C121.152 12.3096 118.729 14.6037 118.729 17.4789V111.436ZM102.729 74.7518C102.729 76.5697 101.526 78.1488 99.8426 78.8347C87.7847 83.7468 79.2852 95.5839 79.2852 109.407C79.2852 115.457 80.9129 121.124 83.7556 125.999C84.7652 127.731 84.6195 129.958 83.2022 131.375C81.4779 133.099 78.6172 132.93 77.3396 130.853C73.5023 124.615 71.2852 117.27 71.2852 109.407C71.2852 91.886 82.2759 76.9329 97.7391 71.0639C100.23 70.1184 102.729 72.0874 102.729 74.7518ZM122.729 75.1133C122.729 72.4019 125.303 70.4227 127.812 71.4502C142.757 77.57 153.285 92.2589 153.285 109.407C153.285 117.015 151.21 124.139 147.599 130.244C146.343 132.369 143.442 132.564 141.697 130.819C140.298 129.419 140.133 127.228 141.1 125.502C143.766 120.74 145.285 115.252 145.285 109.407C145.285 95.8852 137.152 84.2633 125.511 79.1652C123.88 78.4509 122.729 76.8938 122.729 75.1133Z" fill="#024A70"/>
</g>
<path d="M111.239 171L111.239 184.5L97.7386 184.5L97.7386 174C97.7386 172.343 99.0818 171 100.739 171L111.239 171Z" fill="#024A70"/>
<path d="M111.239 187.5L111.239 201L100.739 201C99.0818 201 97.7386 199.657 97.7386 198L97.7386 187.5L111.239 187.5Z" fill="#024A70"/>
<path d="M124.737 171C126.394 171 127.737 172.343 127.737 174L127.737 184.5L114.237 184.5L114.237 171L124.737 171Z" fill="#024A70"/>
<path d="M127.737 187.5L127.737 198C127.737 199.657 126.394 201 124.737 201L114.237 201L114.237 187.5L127.737 187.5Z" fill="#024A70"/>
</svg>
